<svg width="7" height="16" viewBox="0 0 7 16" fill="none" xmlns="http://www.w3.org/2000/svg">
<path d="M2.30709 0.824097C2.89299 0.230134 3.72242 0.0282492 4.50849 0.00487055C5.33816 -0.00292233 6.16782 0.00097411 6.99726 0.00097411C7.00091 0.936607 7.00091 1.86834 6.99726 2.80398C6.46249 2.80398 5.92383 2.80398 5.38906 2.80398C5.05057 2.7806 4.70136 3.05627 4.63951 3.41742C4.6322 4.04256 4.63585 4.66745 4.63585 5.29258C5.4217 5.29648 6.20777 5.29258 6.99361 5.29648C6.93541 6.20094 6.82996 7.10175 6.70625 7.99476C6.01125 8.00256 5.31625 7.99477 4.62125 7.99866C4.61394 10.6658 4.6249 13.329 4.61759 15.9963C3.58411 16.0002 2.5545 15.9925 1.52101 16.0002C1.50276 13.3331 1.52101 10.666 1.51006 7.99866C1.00792 7.99477 0.502136 8.00256 0 7.99476C0.0036519 7.09785 0 6.20118 0 5.30817C0.502136 5.30038 1.00792 5.30817 1.51006 5.30427C1.52467 4.43464 1.49545 3.5611 1.52467 2.69147C1.57945 1.99668 1.82321 1.30165 2.30709 0.824097Z" fill="black"/>
</svg>
