<svg width="22" height="16" viewBox="0 0 22 16" fill="none" xmlns="http://www.w3.org/2000/svg">
<path d="M20.8718 0.666504H1.12823C0.507676 0.666504 0 1.17418 0 1.79469V14.205C0 14.8254 0.507676 15.3332 1.12823 15.3332H20.8718C21.4923 15.3332 22 14.8255 22 14.205V1.79469C22 1.17418 21.4923 0.666504 20.8718 0.666504ZM20.4484 1.5126L11.649 8.11269C11.4908 8.23309 11.2479 8.30841 11 8.30729C10.752 8.30841 10.5092 8.23309 10.351 8.11269L1.55156 1.5126H20.4484ZM15.748 8.54818L20.5429 14.4713C20.5477 14.4772 20.5536 14.4817 20.5587 14.4871H1.44126C1.44633 14.4815 1.45226 14.4772 1.45707 14.4713L6.25195 8.54818C6.39886 8.36655 6.37102 8.10027 6.18905 7.95302C6.00742 7.80611 5.74114 7.83395 5.59419 8.01562L0.846141 13.8809V2.04146L9.84354 8.78953C10.1817 9.04141 10.5932 9.15227 10.9999 9.15339C11.4061 9.15253 11.8179 9.04167 12.1563 8.78953L21.1537 2.04146V13.8808L16.4058 8.01562C16.2588 7.83399 15.9923 7.80606 15.8109 7.95302C15.629 8.09993 15.6011 8.36655 15.748 8.54818Z" fill="white"/>
</svg>
