<svg width="23" height="23" viewBox="0 0 23 23" fill="none" xmlns="http://www.w3.org/2000/svg">
<path d="M11.519 5.54102C8.20892 5.54102 5.51538 8.19525 5.51538 11.4581C5.51538 14.7205 8.20854 17.3747 11.519 17.3747C14.8291 17.3747 17.5227 14.7205 17.5227 11.4581C17.5227 8.19525 14.8291 5.54102 11.519 5.54102ZM11.519 15.1964C9.41423 15.1964 7.70219 13.5191 7.70219 11.4581C7.70219 9.39665 9.41423 7.71971 11.519 7.71971C13.6234 7.71971 15.3359 9.39665 15.3359 11.4581C15.3359 13.5195 13.6238 15.1964 11.519 15.1964Z" fill="white"/>
<path d="M16.3798 0H6.62023C2.97004 0 0 2.95814 0 6.59455V16.4054C0 20.0415 2.96966 23 6.62023 23H16.3798C20.0303 23 23 20.0415 23 16.4054V6.59455C23 2.95852 20.0303 0 16.3798 0ZM20.8091 16.4054C20.8091 18.8382 18.822 20.8176 16.3798 20.8176H6.62023C4.17799 20.8176 2.19094 18.8382 2.19094 16.4054V6.59455C2.19094 4.16179 4.17799 2.18245 6.62023 2.18245H16.3798C18.822 2.18245 20.8091 4.16179 20.8091 6.59455V16.4054Z" fill="white"/>
<path d="M17.6294 6.70634C18.4096 6.70634 19.042 6.07635 19.042 5.29921C19.042 4.52208 18.4096 3.89209 17.6294 3.89209C16.8492 3.89209 16.2168 4.52208 16.2168 5.29921C16.2168 6.07635 16.8492 6.70634 17.6294 6.70634Z" fill="white"/>
</svg>
