<svg width="15" height="15" viewBox="0 0 15 15" fill="none" xmlns="http://www.w3.org/2000/svg">
<path d="M7.51235 3.61356C5.35358 3.61356 3.59692 5.34458 3.59692 7.47249C3.59692 9.60016 5.35333 11.3312 7.51235 11.3312C9.67112 11.3312 11.4278 9.60016 11.4278 7.47249C11.4278 5.34458 9.67112 3.61356 7.51235 3.61356ZM7.51235 9.91054C6.13965 9.91054 5.0231 8.81665 5.0231 7.47249C5.0231 6.1281 6.13965 5.03445 7.51235 5.03445C8.88479 5.03445 10.0016 6.1281 10.0016 7.47249C10.0016 8.81689 8.88504 9.91054 7.51235 9.91054Z" fill="black"/>
<path d="M10.6825 0H4.31754C1.93698 0 0 1.92922 0 4.3008V10.6992C0 13.0705 1.93673 15 4.31754 15H10.6825C13.0633 15 15 13.0705 15 10.6992V4.3008C15 1.92947 13.0633 0 10.6825 0ZM13.5711 10.6992C13.5711 12.2858 12.2752 13.5767 10.6825 13.5767H4.31754C2.72477 13.5767 1.42888 12.2858 1.42888 10.6992V4.3008C1.42888 2.71421 2.72477 1.42333 4.31754 1.42333H10.6825C12.2752 1.42333 13.5711 2.71421 13.5711 4.3008V10.6992Z" fill="black"/>
<path d="M11.4974 4.37365C12.0062 4.37365 12.4187 3.96278 12.4187 3.45596C12.4187 2.94913 12.0062 2.53827 11.4974 2.53827C10.9886 2.53827 10.5762 2.94913 10.5762 3.45596C10.5762 3.96278 10.9886 4.37365 11.4974 4.37365Z" fill="black"/>
</svg>
