<svg width="13" height="11" viewBox="0 0 13 11" fill="none" xmlns="http://www.w3.org/2000/svg">
<path d="M0.207787 6.00504L4.90255 10.6999C5.03656 10.8339 5.21518 10.9075 5.40563 10.9075C5.5963 10.9075 5.77481 10.8338 5.90882 10.6999L6.33507 10.2735C6.46898 10.1397 6.54275 9.96102 6.54275 9.77046C6.54275 9.58 6.46898 9.39526 6.33507 9.26145L3.59621 6.51658L12.2977 6.51657C12.69 6.51657 13 6.20944 13 5.81701L13 5.21426C13 4.82183 12.69 4.48373 12.2977 4.48373L3.56514 4.48373L6.33496 1.72353C6.46887 1.58951 6.54265 1.41565 6.54265 1.22509C6.54265 1.03474 6.46887 0.858348 6.33496 0.724438L5.90872 0.299459C5.7747 0.165444 5.59619 0.0924126 5.40552 0.0924127C5.21507 0.0924127 5.03646 0.166395 4.90244 0.30041L0.207681 4.99517C0.0733494 5.1296 -0.000527871 5.30907 4.80924e-07 5.49984C-0.00042198 5.69124 0.0733495 5.87081 0.207787 6.00504Z" fill="white"/>
</svg>
