<svg width="90" height="24" viewBox="0 0 90 24" fill="none" xmlns="http://www.w3.org/2000/svg">
<path d="M10.1499 5.73193C10.1499 4.79606 9.90169 4.12874 9.40527 3.72998C8.91699 3.33122 8.22933 3.13184 7.34229 3.13184H3.83887V8.42969H7.34229C8.22933 8.42969 8.91699 8.21403 9.40527 7.78271C9.90169 7.3514 10.1499 6.66781 10.1499 5.73193ZM13.873 5.70752C13.873 7.83154 13.3359 9.33301 12.2617 10.2119C11.1875 11.0908 9.65348 11.5303 7.65967 11.5303H3.83887V18H0.103516V0.00683594H7.94043C9.74707 0.00683594 11.1875 0.470703 12.2617 1.39844C13.3359 2.32617 13.873 3.76253 13.873 5.70752ZM23.6387 4.37695C23.7038 4.37695 23.7567 4.38102 23.7974 4.38916C23.8462 4.38916 23.9479 4.39323 24.1025 4.40137V7.96582C23.8828 7.94141 23.6875 7.92513 23.5166 7.91699C23.3457 7.90885 23.2074 7.90479 23.1016 7.90479C21.7018 7.90479 20.7619 8.36051 20.2817 9.27197C20.0132 9.78467 19.8789 10.5741 19.8789 11.6401V18H16.3755V4.69434H19.6958V7.01367C20.2329 6.12663 20.7008 5.52035 21.0996 5.19482C21.7507 4.64958 22.597 4.37695 23.6387 4.37695ZM32.1226 15.5464C33.1398 15.5464 33.9211 15.1842 34.4663 14.46C35.0116 13.7357 35.2842 12.7062 35.2842 11.3716C35.2842 10.0369 35.0116 9.01156 34.4663 8.29541C33.9211 7.57113 33.1398 7.20898 32.1226 7.20898C31.1053 7.20898 30.32 7.57113 29.7666 8.29541C29.2214 9.01156 28.9487 10.0369 28.9487 11.3716C28.9487 12.7062 29.2214 13.7357 29.7666 14.46C30.32 15.1842 31.1053 15.5464 32.1226 15.5464ZM38.9341 11.3716C38.9341 13.3247 38.3726 14.9971 37.2495 16.3887C36.1265 17.7721 34.4215 18.4639 32.1348 18.4639C29.848 18.4639 28.1431 17.7721 27.02 16.3887C25.897 14.9971 25.3354 13.3247 25.3354 11.3716C25.3354 9.45101 25.897 7.78678 27.02 6.37891C28.1431 4.97103 29.848 4.26709 32.1348 4.26709C34.4215 4.26709 36.1265 4.97103 37.2495 6.37891C38.3726 7.78678 38.9341 9.45101 38.9341 11.3716ZM56.3047 4.40137C56.8906 4.40137 57.4684 4.5153 58.0381 4.74316C58.6077 4.97103 59.1245 5.36979 59.5884 5.93945C59.9627 6.40332 60.215 6.97298 60.3452 7.64844C60.4266 8.09603 60.4673 8.75114 60.4673 9.61377L60.4429 18H56.8784V9.52832C56.8784 9.02376 56.797 8.60872 56.6343 8.2832C56.325 7.66471 55.7554 7.35547 54.9253 7.35547C53.965 7.35547 53.3018 7.75423 52.9355 8.55176C52.7484 8.97493 52.6548 9.48356 52.6548 10.0776V18H49.1514V10.0776C49.1514 9.28825 49.07 8.71452 48.9072 8.35645C48.6143 7.71354 48.0405 7.39209 47.186 7.39209C46.1932 7.39209 45.5259 7.71354 45.1841 8.35645C44.9969 8.72266 44.9033 9.2679 44.9033 9.99219V18H41.3755V4.71875H44.7568V6.65967C45.1882 5.96794 45.5951 5.47559 45.9775 5.18262C46.653 4.66178 47.5278 4.40137 48.6021 4.40137C49.6193 4.40137 50.4412 4.62516 51.0679 5.07275C51.5724 5.48779 51.9549 6.02083 52.2153 6.67188C52.6711 5.89062 53.2367 5.31689 53.9121 4.95068C54.6283 4.58447 55.4258 4.40137 56.3047 4.40137ZM71.0142 11.5303C70.7944 11.6686 70.5706 11.7826 70.3428 11.8721C70.123 11.9535 69.8179 12.0308 69.4272 12.104L68.646 12.2505C67.9136 12.3807 67.3887 12.5394 67.0713 12.7266C66.5342 13.0439 66.2656 13.5363 66.2656 14.2036C66.2656 14.7977 66.4284 15.229 66.7539 15.4976C67.0876 15.758 67.4904 15.8882 67.9624 15.8882C68.7111 15.8882 69.3988 15.6685 70.0254 15.229C70.6602 14.7896 70.9897 13.988 71.0142 12.8242V11.5303ZM68.9023 9.90674C69.5452 9.82536 70.005 9.72363 70.2817 9.60156C70.7782 9.38997 71.0264 9.06038 71.0264 8.61279C71.0264 8.06755 70.8351 7.6932 70.4526 7.48975C70.0783 7.27816 69.5249 7.17236 68.7925 7.17236C67.9705 7.17236 67.3887 7.37581 67.0469 7.78271C66.8027 8.08382 66.64 8.49072 66.5586 9.00342H63.2017C63.2749 7.83968 63.6004 6.88346 64.1782 6.13477C65.0978 4.96289 66.6766 4.37695 68.9146 4.37695C70.3713 4.37695 71.6652 4.66585 72.7964 5.24365C73.9276 5.82145 74.4932 6.91195 74.4932 8.51514V14.6187C74.4932 15.0418 74.5013 15.5545 74.5176 16.1567C74.542 16.6125 74.6112 16.9217 74.7251 17.0845C74.839 17.2472 75.0099 17.3815 75.2378 17.4873V18H71.4536C71.3478 17.7314 71.2746 17.4792 71.2339 17.2432C71.1932 17.0072 71.1606 16.7386 71.1362 16.4375C70.6561 16.9583 70.1027 17.4019 69.4761 17.7681C68.7274 18.1994 67.881 18.415 66.937 18.415C65.7326 18.415 64.7357 18.0732 63.9463 17.3896C63.165 16.6979 62.7744 15.7214 62.7744 14.46C62.7744 12.8242 63.4051 11.6401 64.6665 10.9077C65.3582 10.509 66.3755 10.2241 67.7183 10.0532L68.9023 9.90674ZM78.1309 20.5513L78.5703 20.5757C78.9121 20.592 79.2376 20.5798 79.5469 20.5391C79.8561 20.4984 80.1165 20.4048 80.3281 20.2583C80.5316 20.12 80.7188 19.8311 80.8896 19.3916C81.0687 18.9521 81.1419 18.6836 81.1094 18.5859L76.2266 4.69434H80.0962L83.0015 14.5088L85.748 4.69434H89.4468L84.8813 17.7803C84.0024 20.3031 83.3066 21.8656 82.7939 22.4678C82.2812 23.0781 81.2559 23.3833 79.7178 23.3833C79.4085 23.3833 79.1603 23.3792 78.9731 23.3711C78.786 23.3711 78.5052 23.3589 78.1309 23.3345V20.5513Z" fill="white"/>
</svg>
