<svg width="18" height="12" viewBox="0 0 18 12" fill="none" xmlns="http://www.w3.org/2000/svg">
<path d="M17.0769 -3.05176e-05H0.923098C0.415371 -3.05176e-05 0 0.41534 0 0.923032V11.0769C0 11.5846 0.415371 12 0.923098 12H17.0769C17.5846 12 18 11.5846 18 11.0769V0.923032C18 0.41534 17.5846 -3.05176e-05 17.0769 -3.05176e-05ZM16.7305 0.692231L9.531 6.0923C9.40156 6.19081 9.20285 6.25244 8.99996 6.25152C8.79711 6.25244 8.59845 6.19081 8.46896 6.0923L1.26946 0.692231H16.7305ZM12.8848 6.44861L16.8079 11.2948C16.8118 11.2996 16.8166 11.3033 16.8208 11.3077H1.17921C1.18336 11.3031 1.18821 11.2996 1.19215 11.2948L5.11523 6.44861C5.23543 6.3 5.21265 6.08214 5.06377 5.96166C4.91516 5.84146 4.6973 5.86424 4.57706 6.01288L0.692297 10.8117V1.12493L8.0538 6.64608C8.33052 6.85217 8.66718 6.94287 8.99993 6.94379C9.33223 6.94308 9.66916 6.85238 9.94605 6.64608L17.3076 1.12493V10.8117L13.4229 6.01288C13.3027 5.86428 13.0846 5.84143 12.9362 5.96166C12.7873 6.08186 12.7645 6.3 12.8848 6.44861Z" fill="black"/>
</svg>
