<svg width="13" height="11" viewBox="0 0 13 11" fill="none" xmlns="http://www.w3.org/2000/svg">
<path d="M12.7922 4.99497L8.09745 0.300105C7.96344 0.16609 7.78482 0.0925293 7.59437 0.0925293C7.4037 0.0925293 7.22519 0.166195 7.09118 0.300105L6.66493 0.726458C6.53102 0.860262 6.45725 1.03898 6.45725 1.22954C6.45725 1.42 6.53102 1.60474 6.66493 1.73855L9.40378 4.48342H0.702311C0.309989 4.48342 0 4.79056 0 5.18299V5.78574C0 6.17817 0.309989 6.51627 0.702311 6.51627H9.43486L6.66504 9.27647C6.53113 9.41049 6.45735 9.58435 6.45735 9.77491C6.45735 9.96525 6.53113 10.1417 6.66504 10.2756L7.09128 10.7005C7.2253 10.8346 7.40381 10.9076 7.59448 10.9076C7.78493 10.9076 7.96354 10.8336 8.09756 10.6996L12.7923 6.00483C12.9267 5.8704 13.0005 5.69093 13 5.50016C13.0004 5.30876 12.9267 5.12919 12.7922 4.99497Z" fill="white"/>
</svg>
