<svg width="23" height="23" viewBox="0 0 23 23" fill="none" xmlns="http://www.w3.org/2000/svg">
<path d="M20.4636 16.202C19.7958 15.6402 19.0332 15.1725 18.3654 14.7043C16.9346 13.6748 15.5996 13.6748 14.5505 15.266C13.9781 16.202 13.1197 16.202 12.2617 15.8278C9.87718 14.7047 7.96971 13.1135 6.82532 10.6798C6.34823 9.6503 6.34823 8.62079 7.49307 7.87193C8.06549 7.49773 8.73279 7.02953 8.63746 6.09357C8.54213 4.97051 5.77626 1.13314 4.63187 0.758492C4.15478 0.571388 3.67814 0.571388 3.20105 0.758492C0.625835 1.6009 -0.518555 3.75346 0.530506 6.18713C3.58236 13.6748 9.1141 18.8228 16.5533 22.0048C17.0299 22.1919 17.507 22.1919 17.6977 22.2855C19.4145 22.2855 21.4173 20.6942 21.9897 19.1034C22.5621 17.6057 21.4173 16.9508 20.4636 16.202Z" fill="white"/>
<path d="M12.0701 1.41371C12.9419 1.5488 13.7321 1.7324 14.4609 1.95929C14.5843 1.99776 14.7135 2.03229 14.8329 2.07339C14.8756 2.08825 14.9144 2.10617 14.9567 2.12147C15.7287 2.39776 16.4205 2.73175 17.029 3.13656C19.169 4.55951 20.3312 6.81918 20.7486 10.212C20.7486 10.7733 20.5579 11.5221 21.321 11.5221C21.321 11.5221 21.321 11.5221 21.3215 11.5221C22.0845 11.5221 21.8939 10.7733 21.8939 10.3055C21.9473 7.40978 20.5223 4.66224 18.3315 2.77896C17.0201 1.65197 15.4343 0.836227 13.7272 0.482129C13.533 0.44191 13.3375 0.405626 13.1406 0.377211C12.8189 0.331309 12.4938 0.302019 12.1659 0.290653C12.1187 0.302457 12.0639 0.306828 12.0042 0.306828C11.859 0.307265 11.6893 0.283222 11.5276 0.285845C11.2135 0.285407 10.928 0.365845 10.9262 0.84803C10.9262 0.849342 10.9257 0.850653 10.9253 0.852402C10.9257 1.41371 11.5935 1.32016 12.0701 1.41371Z" fill="white"/>
<path d="M13.0248 3.00479C12.5482 2.91124 11.7851 2.63015 11.6898 3.379C11.5945 4.12785 12.3571 4.0343 12.8342 4.12785C16.2674 4.8767 17.4117 6.09331 17.9842 9.36938C18.0795 9.83714 17.8888 10.586 18.7472 10.4924C19.4145 10.3989 19.1286 9.74359 19.2239 9.36938C19.2239 6.1873 16.458 3.37943 13.0248 3.00479Z" fill="white"/>
<path d="M13.3102 5.62479C12.9285 5.62479 12.5472 5.62479 12.4518 5.99899C12.2612 6.56074 12.7383 6.65429 13.1196 6.74785C14.5499 6.93539 15.313 7.6838 15.4084 9.08796C15.5037 9.4626 15.6948 9.74326 16.0761 9.74326C16.6485 9.6497 16.6485 9.18151 16.6485 8.8073C16.6485 7.21648 14.9317 5.53167 13.3102 5.62479Z" fill="white"/>
</svg>
