<svg width="25" height="25" viewBox="0 0 25 25" fill="none" xmlns="http://www.w3.org/2000/svg">
<path d="M20.6469 3.7734C18.3908 1.52535 15.3902 0.286835 12.1935 0.285645C5.60706 0.285645 0.245942 5.62026 0.24355 12.1775C0.242752 14.2736 0.793019 16.3196 1.83853 18.1228L0.143066 24.2856L6.47791 22.632C8.22321 23.5797 10.1886 24.0789 12.1883 24.0797H12.1931C18.7792 24.0797 24.1403 18.7443 24.1431 12.1874C24.1451 9.0092 22.9034 6.02145 20.6469 3.7734ZM12.1939 22.0709H12.1899C10.4075 22.0701 8.65944 21.5935 7.13464 20.6931L6.77179 20.4788L3.01243 21.4602L4.01567 17.8125L3.77961 17.4383C2.78554 15.8645 2.2604 14.0458 2.26119 12.1779C2.26319 6.72781 6.71915 2.29401 12.1975 2.29401C14.8503 2.2948 17.3441 3.32458 19.2194 5.19287C21.0947 7.06115 22.1266 9.54453 22.1258 12.1858C22.1238 17.6367 17.6683 22.0709 12.1939 22.0709Z" fill="white"/>
<path d="M17.6418 14.6674C17.3432 14.5186 15.8754 13.7999 15.6015 13.7007C15.3279 13.6015 15.1286 13.5519 14.9296 13.8496C14.7306 14.1472 14.1584 14.8162 13.9842 15.0147C13.8099 15.2131 13.6357 15.2377 13.3374 15.0889C13.0387 14.94 12.0766 14.6266 10.9362 13.6138C10.0486 12.8257 9.44925 11.8527 9.275 11.5555C9.10075 11.2578 9.25626 11.0971 9.40579 10.9491C9.54017 10.8158 9.70445 10.6019 9.85358 10.4285C10.0027 10.255 10.0526 10.1308 10.1522 9.93282C10.2519 9.73441 10.2021 9.56099 10.1275 9.41218C10.053 9.26337 9.45563 7.80064 9.20682 7.20579C8.96438 6.62642 8.71836 6.70499 8.53493 6.69586C8.36108 6.68713 8.16171 6.68555 7.96274 6.68555C7.76376 6.68555 7.44038 6.75975 7.16645 7.05738C6.89291 7.355 6.12134 8.07366 6.12134 9.53639C6.12134 10.9991 7.19117 12.4122 7.3407 12.6102C7.48983 12.8087 9.44606 15.8099 12.4414 17.0972C13.154 17.4036 13.7098 17.5861 14.1437 17.723C14.859 17.9492 15.5098 17.9175 16.0245 17.8409C16.5983 17.7556 17.791 17.1222 18.0398 16.4282C18.2886 15.7341 18.2886 15.1389 18.214 15.015C18.1395 14.8908 17.9405 14.8162 17.6418 14.6674Z" fill="white"/>
</svg>
