<svg width="1247" height="229" viewBox="0 0 1247 229" fill="none" xmlns="http://www.w3.org/2000/svg">
<path d="M1202 227L114 227C74.7963 227 55.1945 227 40.2207 219.37C27.0493 212.659 16.3407 201.951 9.62955 188.779C2 173.805 2.00001 154.037 2.00001 114.5V114.5C2.00001 74.9629 2.00002 55.1944 9.62956 40.2206C16.3407 27.0492 27.0493 16.3406 40.2207 9.62945C55.1945 1.99991 74.7963 1.99991 114 1.99991L1202 2.00001" stroke="#C1C1C1" stroke-width="2" stroke-linecap="round" stroke-dasharray="10 30"/>
<path d="M45 2H1165C1193 2 1207 2 1217.7 7.44967C1227.11 12.2433 1234.76 19.8924 1239.55 29.3005C1245 39.9961 1245 53.9974 1245 82V147C1245 175.003 1245 189.004 1239.55 199.7C1234.76 209.108 1227.11 216.757 1217.7 221.55C1207 227 1193 227 1165 227H45" stroke="#E16157" stroke-width="4"/>
</svg>
